<?xml version="1.0" encoding="utf-8"?>
<!-- Generator: Adobe Illustrator 24.2.0, SVG Export Plug-In . SVG Version: 6.00 Build 0)  -->
<svg version="1.1" xmlns="http://www.w3.org/2000/svg" xmlns:xlink="http://www.w3.org/1999/xlink" x="0px" y="0px"
	 viewBox="0 0 232 34.6" style="enable-background:new 0 0 232 34.6;" xml:space="preserve">
<style type="text/css">
	.st0{display:none;}
	.st1{display:inline;fill:#2B2460;}
	.st2{fill:#F5CA4F;}
	.st3{fill:#6453A3;}
	.st4{fill:#FFFFFF;}
</style>
<g id="Layer_2" class="st0">
	<rect x="-1.8" y="-2.2" class="st1" width="233.5" height="37"/>
</g>
<g id="Layer_1">
	<g>
		<path class="st2" d="M34.3,14c-1-0.8-2.1-1.3-3.2-1.8c0.4-0.4,0.8-0.8,1.2-1.3c2.1-2.9,2.1-6.6-0.1-8.2c-2.2-1.6-5.7-0.6-7.9,2.3
			c-0.4,0.5-0.7,1-0.9,1.6c-0.7-1-1.6-1.9-2.7-2.7C17,1.3,12.5,0.8,9.3,2.4c-0.6,3.5,1.2,7.6,4.9,10.3c1,0.7,2,1.3,3,1.7
			c-1.9,1.1-3.6,2.5-5,4.4c-3.1,4.2-3.8,9.4-2.3,13.9c4.8,0,9.6-2.2,12.6-6.3c1.4-1.9,2.3-4,2.7-6.1c0.7,0.9,1.6,1.8,2.6,2.5
			c3.6,2.7,8.1,3.2,11.3,1.6C39.7,20.8,37.9,16.7,34.3,14z"/>
		<path d="M15.5,21.2c-0.3,0.5-0.6,0.9-0.9,1.4l6.3,4.6c0.4-0.4,0.7-0.8,1.1-1.3c0,0,0,0,0-0.1L15.5,21.2
			C15.5,21.1,15.5,21.1,15.5,21.2z"/>
		<path d="M18,18.6l5.7,4.2c0.2-0.6,0.4-1.2,0.5-1.7l-4.7-3.5C18.9,17.9,18.4,18.2,18,18.6z"/>
		<path d="M13,27.7l3.4,2.5c0.6-0.2,1.2-0.5,1.7-0.9l-4.8-3.5C13.2,26.5,13.1,27.1,13,27.7z"/>
		<path class="st3" d="M20.9,12.9l-0.3,0l-0.1,0c-1.9,0-3.8-0.7-5.5-2c-2.5-1.9-4-4.7-3.9-7.2c2.4-0.9,5.5-0.3,8,1.6
			c0.5,0.4,1.3,1.3,1.7,1.8l0.8-2.3c-0.5-0.5-0.7-0.7-1.3-1.2C17,1.2,12.8,0.6,9.7,2.1L9.2,2.3L9.2,2.9c-0.5,3.4,1.3,7.2,4.7,9.7
			c1,0.8,2.1,1.3,3.3,1.7c-1.9,1.1-3.7,2.6-5,4.4c-2.9,3.9-3.8,8.9-2.5,13.4l0.2,0.8l0.8,0c4.7-0.1,9.2-2.5,12-6.4
			c2.8-3.9,3.8-8.8,2.5-13.3L24.5,9c-0.1-1.1,0.3-2.4,1.1-3.4c1.5-2,4-2.8,5.5-1.7c1.5,1.1,1.5,3.7,0,5.7c-0.9,1.2-2.2,2-3.5,2.2
			l-1,0l0.4,2.1l0.7,0c1.9,0,3.9,0.7,5.7,2c2.5,1.9,4,4.7,3.9,7.2c-2.4,0.9-5.3,0-8-1.6c-0.3-0.2-1.7-1.5-1.9-1.8l-0.4,2.6
			c0.3,0.3,0.7,0.6,1,0.8c3.4,2.5,7.5,3.1,10.6,1.6l0.5-0.2l0.1-0.5c0.5-3.4-1.3-7.2-4.7-9.7c-1-0.8-2.2-1.4-3.4-1.8
			c0.6-0.4,1.1-1,1.5-1.6c2.2-2.9,2-6.8-0.5-8.6c-2.4-1.8-6.2-0.9-8.4,2.1c-1.1,1.4-1.6,3.1-1.5,4.8l0,0.1l0.6,4.4l0,0.1
			c1.1,3.9,0.3,8.2-2.2,11.6c-2.3,3.1-5.9,5.1-9.6,5.5c-0.8-3.7,0.1-7.7,2.4-10.8c1.8-2.4,4.3-4.2,7.1-5c0,0,0,0,0,0l0,0
			c0,0,0.2,0,0.2-0.1L20.9,12.9z"/>
	</g>
	<g>
		<path class="st4" d="M50.8,16.6c0.6,0.2,1.1,0.5,1.6,1.1c0.4,0.5,0.6,1.2,0.6,2.1c0,0.6-0.1,1.1-0.3,1.6c-0.2,0.5-0.5,0.9-0.9,1.3
			c-0.4,0.4-1,0.7-1.8,0.9c-0.7,0.2-1.7,0.3-2.8,0.3H34.9v-8.6h12.5c0.3,0,0.6-0.1,0.9-0.2c0.2-0.1,0.4-0.4,0.4-0.7
			c0-0.4-0.1-0.6-0.4-0.7s-0.5-0.2-0.8-0.2H34.9l2.9-3.7h9.3c0.8,0,1.6,0.1,2.3,0.2c0.7,0.2,1.3,0.4,1.7,0.7
			c0.5,0.3,0.9,0.7,1.1,1.2c0.3,0.5,0.4,1,0.4,1.7c0,0.4-0.1,0.8-0.2,1.1c-0.1,0.3-0.3,0.6-0.4,0.9c-0.2,0.2-0.4,0.4-0.6,0.6
			C51.3,16.4,51,16.5,50.8,16.6z M39.3,18.3v1.9h8c0.5,0,0.8-0.1,1-0.3c0.2-0.2,0.3-0.4,0.3-0.7c0-0.3-0.1-0.5-0.3-0.7
			c-0.2-0.2-0.6-0.2-1-0.2H39.3z"/>
		<path class="st4" d="M71.5,20.2l-2.8,3.6H55.2V9.8h16.3l-2.8,3.7h-9.1v1.7h11.2l-2.5,3.2h-8.7v1.9H71.5z"/>
		<path class="st4" d="M90.1,23.9h-4.3v-5.4h-8.4v5.4H73V9.8h4.4v5h8.4v-5h4.3V23.9z"/>
		<path class="st4" d="M97.2,23.9h-4.4V9.8h4.4V23.9z"/>
		<path class="st4" d="M104.2,9.8l6.3,9.3l6.6-9.3h5.1l-9,12.7c-0.3,0.4-0.7,0.8-1.1,1.1c-0.4,0.3-1,0.5-1.7,0.5
			c-0.7,0-1.2-0.2-1.7-0.5c-0.4-0.3-0.8-0.7-1.1-1.1L98.8,9.8H104.2z"/>
		<path class="st4" d="M140.2,20.2l-2.8,3.6h-13.6V9.8h16.3l-2.8,3.7h-9.1v1.7h11.2l-2.5,3.2h-8.7v1.9H140.2z"/>
		<path class="st4" d="M167.2,9.8l-2.8,3.7h-5v10.4H155V13.4h-6.6l2.8-3.7H167.2z"/>
		<path class="st4" d="M184.9,20.2l-2.8,3.6h-13.6V9.8h16.3l-2.8,3.7h-9.1v1.7h11.2l-2.5,3.2h-8.7v1.9H184.9z"/>
		<path class="st4" d="M204.3,20.2l-2.8,3.6h-7.1c-1.2,0-2.4-0.2-3.4-0.5c-1-0.4-1.9-0.9-2.7-1.5c-0.8-0.6-1.3-1.4-1.8-2.3
			c-0.4-0.9-0.6-1.8-0.6-2.9c0-1,0.2-2,0.6-2.8c0.4-0.8,1-1.6,1.8-2.2c0.8-0.6,1.6-1.1,2.7-1.4c1-0.3,2.2-0.5,3.4-0.5h9.9l-2.8,3.7
			h-7.1c-0.6,0-1.1,0.1-1.6,0.3c-0.5,0.2-0.9,0.4-1.3,0.7c-0.4,0.3-0.7,0.7-0.9,1.1s-0.3,0.9-0.3,1.4c0,0.5,0.1,1,0.3,1.4
			c0.2,0.4,0.5,0.8,0.9,1.1c0.4,0.3,0.8,0.5,1.3,0.7c0.5,0.2,1.1,0.2,1.6,0.2H204.3z"/>
		<path class="st4" d="M222.9,23.9h-4.3v-5.4h-8.4v5.4h-4.4V9.8h4.4v5h8.4v-5h4.3V23.9z"/>
	</g>
</g>
</svg>
