<?xml version="1.0" encoding="utf-8"?>
<!-- Generator: Adobe Illustrator 24.2.0, SVG Export Plug-In . SVG Version: 6.00 Build 0)  -->
<svg version="1.1" xmlns="http://www.w3.org/2000/svg" xmlns:xlink="http://www.w3.org/1999/xlink" x="0px" y="0px"
	 viewBox="0 0 232 34.6" style="enable-background:new 0 0 232 34.6;" xml:space="preserve">
<style type="text/css">
	.st0{display:none;}
	.st1{display:inline;fill:#2B2460;}
	.st2{fill:#FFFFFF;}
	.st3{fill:#F5CA4F;}
	.st4{fill:#6453A3;}
</style>
<g id="Layer_2" class="st0">
	<rect x="-0.4" y="-0.3" class="st1" width="233.2" height="35.1"/>
</g>
<g id="Layer_1">
	<g>
		<path class="st2" d="M50.8,16.6c0.6,0.2,1.1,0.5,1.6,1.1c0.4,0.5,0.6,1.2,0.6,2.1c0,0.6-0.1,1.1-0.3,1.6c-0.2,0.5-0.5,0.9-0.9,1.3
			c-0.4,0.4-1,0.7-1.8,0.9c-0.7,0.2-1.7,0.3-2.8,0.3H34.9v-8.6h12.5c0.3,0,0.6-0.1,0.9-0.2c0.2-0.1,0.4-0.4,0.4-0.7
			c0-0.4-0.1-0.6-0.4-0.7s-0.5-0.2-0.8-0.2H34.9l2.9-3.7h9.3c0.8,0,1.6,0.1,2.3,0.2c0.7,0.2,1.3,0.4,1.7,0.7
			c0.5,0.3,0.9,0.7,1.1,1.2c0.3,0.5,0.4,1,0.4,1.7c0,0.4-0.1,0.8-0.2,1.1c-0.1,0.3-0.3,0.6-0.4,0.9c-0.2,0.2-0.4,0.4-0.6,0.6
			C51.3,16.4,51,16.5,50.8,16.6z M39.3,18.3v1.9h8c0.5,0,0.8-0.1,1-0.3c0.2-0.2,0.3-0.4,0.3-0.7c0-0.3-0.1-0.5-0.3-0.7
			c-0.2-0.2-0.6-0.2-1-0.2H39.3z"/>
		<path class="st2" d="M71.5,20.2l-2.8,3.6H55.2V9.8h16.3l-2.8,3.7h-9.1v1.7h11.2l-2.5,3.2h-8.7v1.9H71.5z"/>
		<path class="st2" d="M90.1,23.9h-4.3v-5.4h-8.4v5.4H73V9.8h4.4v5h8.4v-5h4.3V23.9z"/>
		<path class="st2" d="M97.2,23.9h-4.4V9.8h4.4V23.9z"/>
		<path class="st2" d="M104.2,9.8l6.3,9.3l6.6-9.3h5.1l-9,12.7c-0.3,0.4-0.7,0.8-1.1,1.1c-0.4,0.3-1,0.5-1.7,0.5
			c-0.7,0-1.2-0.2-1.7-0.5c-0.4-0.3-0.8-0.7-1.1-1.1L98.8,9.8H104.2z"/>
		<path class="st2" d="M140.2,20.2l-2.8,3.6h-13.6V9.8h16.3l-2.8,3.7h-9.1v1.7h11.2l-2.5,3.2h-8.7v1.9H140.2z"/>
		<path class="st2" d="M167.2,9.8l-2.8,3.7h-5v10.4H155V13.4h-6.6l2.8-3.7H167.2z"/>
		<path class="st2" d="M184.9,20.2l-2.8,3.6h-13.6V9.8h16.3l-2.8,3.7h-9.1v1.7h11.2l-2.5,3.2h-8.7v1.9H184.9z"/>
		<path class="st2" d="M204.3,20.2l-2.8,3.6h-7.1c-1.2,0-2.4-0.2-3.4-0.5c-1-0.4-1.9-0.9-2.7-1.5c-0.8-0.6-1.3-1.4-1.8-2.3
			c-0.4-0.9-0.6-1.8-0.6-2.9c0-1,0.2-2,0.6-2.8c0.4-0.8,1-1.6,1.8-2.2c0.8-0.6,1.6-1.1,2.7-1.4c1-0.3,2.2-0.5,3.4-0.5h9.9l-2.8,3.7
			h-7.1c-0.6,0-1.1,0.1-1.6,0.3c-0.5,0.2-0.9,0.4-1.3,0.7c-0.4,0.3-0.7,0.7-0.9,1.1s-0.3,0.9-0.3,1.4c0,0.5,0.1,1,0.3,1.4
			c0.2,0.4,0.5,0.8,0.9,1.1c0.4,0.3,0.8,0.5,1.3,0.7c0.5,0.2,1.1,0.2,1.6,0.2H204.3z"/>
		<path class="st2" d="M222.9,23.9h-4.3v-5.4h-8.4v5.4h-4.4V9.8h4.4v5h8.4v-5h4.3V23.9z"/>
	</g>
	<g>
		<path class="st3" d="M20,30.1c1.1-0.7,2-1.5,2.8-2.4c0.2,0.5,0.5,1.1,0.8,1.6c1.9,3.1,5.4,4.4,7.7,2.9c2.3-1.4,2.6-5.1,0.7-8.2
			c-0.3-0.5-0.7-1-1.1-1.4c1.2-0.3,2.4-0.8,3.5-1.5c3.8-2.4,5.9-6.4,5.6-9.9c-3.1-1.8-7.5-1.6-11.4,0.8c-1,0.6-1.9,1.4-2.6,2.2
			c-0.3-2.2-1-4.3-2.3-6.3c-2.8-4.4-7.3-6.9-12.1-7.3c-1.8,4.5-1.5,9.7,1.3,14.1c1.2,2,2.9,3.6,4.7,4.8c-1.1,0.3-2.2,0.8-3.3,1.5
			c-3.8,2.4-5.9,6.4-5.6,9.9C11.7,32.7,16.2,32.5,20,30.1z"/>
		<path d="M20.2,10.1c-0.3-0.5-0.6-0.9-1-1.3l-6.6,4.1c0.2,0.5,0.5,1,0.8,1.5c0,0,0,0,0,0.1L20.2,10.1
			C20.3,10.1,20.3,10.1,20.2,10.1z"/>
		<path d="M21.7,13.3l-6,3.8c0.5,0.4,0.9,0.8,1.4,1.1l5-3.1C22,14.4,21.9,13.8,21.7,13.3z"/>
		<path d="M15,5.3l-3.6,2.2c0,0.6,0.1,1.3,0.2,1.9l5.1-3.2C16.2,5.9,15.6,5.6,15,5.3z"/>
		<path class="st4" d="M25.9,18.1l0.1-0.3l0-0.1c0.7-1.7,2.1-3.3,3.9-4.4c2.6-1.7,5.8-2,8.1-1c-0.1,2.5-1.8,5.2-4.4,6.9
			c-0.5,0.3-1.7,0.7-2.3,0.9l1.8,1.6c0.7-0.3,0.9-0.4,1.6-0.8c3.5-2.2,5.6-5.9,5.4-9.3l0-0.5l-0.5-0.3c-3-1.7-7.2-1.4-10.7,0.8
			c-1.1,0.7-2,1.5-2.8,2.4c-0.3-2.2-1.1-4.3-2.3-6.3C21.2,3.7,16.9,1,12.2,0.5l-0.8-0.1l-0.3,0.7c-1.6,4.4-1.1,9.4,1.5,13.5
			c2.5,4.1,6.8,6.8,11.5,7.2l4.2,1c1.1,0.4,2.1,1.2,2.7,2.3c1.3,2.1,1.1,4.7-0.5,5.7c-1.6,1-4,0.1-5.3-2.1c-0.8-1.3-1.1-2.8-0.7-4
			l0.4-0.9l-2.1-0.4l-0.2,0.7c-0.7,1.8-2.1,3.4-3.9,4.5c-2.6,1.7-5.8,2-8.1,1c0.1-2.5,2-4.9,4.4-6.9c0.3-0.2,2-1,2.4-1.1L15,20.4
			c-0.4,0.2-0.8,0.4-1.2,0.7c-3.5,2.2-5.6,5.9-5.4,9.3l0,0.5l0.5,0.3c3,1.7,7.2,1.4,10.7-0.8c1.1-0.7,2.1-1.5,2.9-2.5
			c0.2,0.7,0.5,1.3,0.9,2c1.9,3.1,5.6,4.3,8.2,2.7c2.6-1.6,3.1-5.4,1.1-8.5c-1-1.5-2.3-2.6-3.9-3.1l-0.1,0l-4.3-1l-0.1,0
			c-4-0.4-7.8-2.7-10-6.3c-2.1-3.3-2.6-7.3-1.6-11c3.7,0.6,7.1,2.9,9.2,6.2c1.6,2.5,2.3,5.5,2.1,8.4c0,0,0,0,0,0l0,0
			c0,0.1,0,0.2,0,0.2L25.9,18.1z"/>
	</g>
</g>
</svg>
